<svg width="137" height="185" viewBox="0 0 137 185" fill="none" xmlns="http://www.w3.org/2000/svg">
    <path d="M102.682 -18C67.8996 -17.1254 67.8758 14.3212 67.8758 14.3212C67.8758 14.3212 66.8817 -8.46141 33.0661 -9.34179C20.8267 -9.34179 0 -0.515694 0 20.0956C0 39.1844 55.0574 72.5788 65.9911 79.0238L54.8184 94.9036H63.3831C63.2963 95.0003 63.1997 95.0902 63.127 95.1958L63.1239 95.202L63.1184 95.2074C62.9839 95.4474 61.2105 97.8975 61.1713 101.361C60.9017 105.082 64.3197 110.279 72.9779 112.176C75.3431 112.653 77.6998 114.956 77.5262 116.32C77.4021 117.353 77.0934 118.831 70.4061 120.093C57.5462 122.511 51.7385 131.415 51.3412 136.981C51.3412 137.036 51.3412 137.101 51.3412 137.171C51.6114 143.835 58.8189 147.333 64.2133 150.436C70.0729 153.541 74.1798 156.396 73.9689 158.504C73.9719 158.59 73.9756 158.678 73.9756 158.765C73.9689 161.012 72.613 162.522 70.3382 164.903C68.1649 167.174 65.1309 170.315 65.1474 174.843C65.1474 177.033 65.8358 179.427 67.3256 182.094C68.2279 183.715 70.7643 184.495 72.9901 183.837C75.216 183.18 76.2895 181.33 75.3823 179.711C74.222 177.62 73.8484 176.063 73.8448 174.843C73.8601 172.425 75.2447 170.876 77.4828 168.516C79.6249 166.269 82.6815 163.211 82.6736 158.764C82.6736 158.605 82.6699 158.445 82.6613 158.283C82.0408 151.768 74.8302 148.498 69.4799 145.395C63.668 142.288 59.7653 139.485 60.0385 137.171V137.096C59.8398 134.597 64.9793 127.138 72.3024 126.275C81.0046 125.036 86.3464 120.895 86.2242 116.32C86.053 111.524 81.5775 107.677 75.7209 106.162C70.1517 104.615 70.1481 103.205 69.8748 101.361C69.8345 99.6467 70.9948 98.1037 70.8878 98.0596C71.6146 97.0131 71.4551 95.8201 70.6359 94.9036H79.189L68.4987 79.714C93.5748 63.1925 130.175 45.6476 135.753 20.0956C140.422 -1.29187 124.268 -18 102.682 -18Z" fill="#DD425C"/>
</svg>
