<svg width="84" height="103" viewBox="0 0 84 103" fill="none" xmlns="http://www.w3.org/2000/svg">
    <path d="M93.6289 -0.11344C74.1988 -12.1172 62.6358 5.53769 62.6358 5.53769C62.6358 5.53769 70.4575 -7.6163 52.2033 -20.2584C45.4793 -24.6551 30.7958 -27.1791 23.2256 -15.6019C16.2146 -4.87979 34.1966 33.656 37.8362 41.2038L25.8657 46.1099L30.571 49.1866C30.4878 49.2097 30.4017 49.2255 30.323 49.2587L30.319 49.2611L30.314 49.2621C30.152 49.3486 28.2778 50.0877 26.9843 52.0189C25.4695 54.0122 25.4384 58.1593 29.4983 62.3351C30.6224 63.4529 31.0715 65.5927 30.4751 66.2965C30.0273 66.8324 29.315 67.5515 25.1776 65.858C17.2246 62.5966 10.7637 65.5117 8.50113 68.4953C8.48102 68.5261 8.4568 68.5631 8.43113 68.6024C6.13227 72.4421 8.80721 76.9961 10.6308 80.6773C12.7096 84.5261 13.9172 87.605 13.0273 88.7131C12.997 88.763 12.967 88.8133 12.9351 88.8621C12.1061 90.1219 10.8064 90.4832 8.68234 91.0033C6.65426 91.4982 3.83387 92.1725 2.17956 94.7222C1.37536 95.9521 0.874246 97.5441 0.713173 99.5773C0.613373 100.812 1.72042 102.161 3.18482 102.591C4.64923 103.022 5.9184 102.368 6.01469 101.133C6.14499 99.5419 6.51189 98.5327 6.95786 97.8463C7.8542 96.4939 9.18408 96.1208 11.2801 95.5996C13.2826 95.1065 16.0847 94.4873 17.7137 91.9864C17.7723 91.8969 17.8288 91.806 17.8837 91.7119C19.9358 87.8294 17.1753 83.4026 15.3757 79.7375C13.3239 75.9045 12.2095 72.928 13.2094 71.7264L13.2371 71.6842C14.0456 70.2093 19.6085 67.8661 23.949 70.0116C29.1848 72.4418 33.6404 72.0348 35.2536 69.421C36.9209 66.6659 35.8752 62.897 33.2142 59.9422C30.7228 57.0727 31.2385 56.2797 31.7658 55.1455C32.3732 54.1682 33.5773 53.7183 33.5347 53.6552C34.3184 53.3285 34.6689 52.601 34.5555 51.792L39.2544 54.8645L38.9603 42.4923C58.8046 42.2203 85.3559 45.5133 97.8051 33.1646C108.226 22.8287 105.487 7.64067 93.6289 -0.11344Z" fill="#DD425C"/>
</svg>
