<svg width="380" height="583" viewBox="0 0 380 583" fill="none" xmlns="http://www.w3.org/2000/svg">
    <path d="M-14.3477 493.43C-14.3477 475.555 -9.87891 457.121 -0.941406 438.129C8.27539 418.857 23.2178 399.726 43.8857 380.733C64.5537 361.462 91.7852 342.47 125.58 323.757C159.375 305.044 200.99 287.169 250.426 270.132C280.59 259.798 305.028 250.022 323.741 240.806C342.733 231.31 357.396 221.953 367.73 212.736C378.064 203.52 385.047 194.163 388.678 184.667C392.309 175.171 394.124 164.977 394.124 154.084C394.124 141.795 390.912 130.483 384.488 120.149C378.344 109.536 369.127 100.319 356.838 92.499C344.828 84.6787 330.025 78.6738 312.43 74.4844C295.113 70.0156 275.423 67.7812 253.358 67.7812C229.06 67.7812 206.297 69.7363 185.07 73.6465C164.123 77.5566 145.829 84.1201 130.188 93.3369C114.548 102.554 102.259 114.703 93.3213 129.785C84.3838 144.867 79.915 163.72 79.915 186.343H-14.3477C-14.3477 155.062 -8.06348 127.83 4.50488 104.648C17.0732 81.1875 35.0879 61.7764 58.5488 46.415C82.0098 31.0537 110.358 19.6025 143.595 12.0615C176.831 4.52051 214.257 0.75 255.872 0.75C292.181 0.75 324.719 4.24121 353.486 11.2236C382.533 17.9268 407.111 27.8418 427.221 40.9688C447.33 53.8164 462.691 69.7363 473.305 88.7285C484.197 107.441 489.644 128.808 489.644 152.827C489.644 171.261 486.571 188.717 480.427 205.195C474.282 221.674 463.669 237.454 448.587 252.536C433.505 267.339 413.116 281.583 387.421 295.269C362.005 308.675 330.025 321.662 291.482 334.23C258.805 344.844 230.316 355.597 206.018 366.489C181.719 377.103 161.19 388.135 144.433 399.586C127.675 410.758 114.408 422.209 104.633 433.939C94.8574 445.67 88.1543 457.68 84.5234 469.969H418.842V402.938H513.104V537H-14.3477V493.43ZM142.757 444.832C144.712 439.805 149.041 434.219 155.744 428.074C162.727 421.65 172.781 414.808 185.908 407.546C199.314 400.284 216.212 392.604 236.601 384.504C256.989 376.404 281.567 368.165 310.335 359.786C381.835 339.118 434.622 311.049 468.696 275.578C502.771 240.107 519.808 198.911 519.808 151.989C519.808 131.042 514.361 110.234 503.469 89.5664C492.576 68.8984 476.237 49.7666 454.452 32.1709C467.858 37.1982 479.589 44.1807 489.644 53.1182C499.978 61.7764 508.636 71.5518 515.618 82.4443C522.601 93.3369 527.768 104.788 531.119 116.798C534.75 128.808 536.565 140.398 536.565 151.57C536.565 177.824 532.236 202.123 523.578 224.467C514.92 246.811 501.234 267.479 482.521 286.471C464.088 305.184 440.208 322.221 410.882 337.582C381.556 352.943 346.364 366.769 305.308 379.058C284.36 385.481 265.927 391.486 250.007 397.072C234.366 402.658 220.82 408.104 209.369 413.411C198.197 418.718 188.98 424.024 181.719 429.331C174.457 434.358 168.871 439.525 164.961 444.832H142.757ZM9.11328 215.669H107.984C107.984 175.171 119.715 145.286 143.176 126.015C166.916 106.743 203.644 97.1074 253.358 97.1074C268.161 97.1074 281.707 98.2246 293.996 100.459C306.564 102.414 317.317 105.207 326.255 108.838C335.472 112.189 342.594 116.239 347.621 120.987C352.648 125.456 355.162 130.064 355.162 134.812C353.207 132.578 349.855 130.204 345.107 127.69C340.359 124.897 333.796 122.523 325.417 120.568C317.317 118.334 307.402 116.519 295.672 115.122C283.941 113.726 270.116 113.027 254.196 113.027C232.69 113.027 213.838 114.843 197.639 118.474C181.719 122.104 168.312 128.109 157.42 136.488C146.527 144.588 138.288 155.48 132.702 169.166C127.396 182.572 124.742 199.19 124.742 219.021V231.589H9.11328V215.669ZM543.269 566.326V426.398H560.026V582.246H9.11328V566.326H543.269Z" fill="#9A9BB3"/>
</svg>
