<svg width="348" height="383" viewBox="0 0 348 383" fill="none" xmlns="http://www.w3.org/2000/svg">
    <g clip-path="url(#clip0_15_39)">
        <path d="M240.379 204.895L250.776 210.231L277.021 148.286L266.624 142.95L240.379 204.895Z" fill="#566916"/>
        <path d="M70.9795 148.29L97.2245 210.235L107.622 204.899L81.3769 142.954L70.9795 148.29Z" fill="#566916"/>
        <path d="M179.736 131.172H168.263V204.127H179.736V131.172Z" fill="#566916"/>
        <path d="M196.112 0H180.593L168.455 67.3407L206.696 33.6703L196.112 0Z" fill="#F89890"/>
        <path d="M195.469 33.6703H197.396C196.754 33.6703 196.112 33.6786 195.469 33.6703Z" fill="#F89890"/>
        <path d="M180.593 0L183.751 33.6703L162.91 58.9229L141.304 33.6703L151.888 0H180.593Z" fill="#FFC5BF"/>
        <path d="M131.062 33.6703C131.062 33.6703 128.109 86.2214 128.109 86.9792C128.109 93.8477 129.356 100.405 131.62 106.373V106.062L195.469 33.704C195.469 33.6703 131.062 33.6703 131.062 33.6703Z" fill="#F89890"/>
        <path d="M216.938 33.6703H197.396C196.754 33.6703 196.112 33.6786 195.469 33.704L174 137.484C199.347 137.484 219.89 114.875 219.89 86.9792C219.89 86.2214 216.938 33.6703 216.938 33.6703Z" fill="#EA3F31"/>
        <path d="M195.469 33.704C160.003 34.8238 131.62 66.7512 131.62 106.062V106.373C138.534 124.648 154.901 137.484 173.999 137.484C186.673 137.484 196.944 114.875 196.944 86.9791C196.945 86.2296 195.515 35.2188 195.469 33.704Z" fill="#F16C60"/>
        <path d="M340.525 41.0528L326.46 33.8342L289.601 89.2203L337.188 76.4915L340.525 41.0528Z" fill="#F89890"/>
        <path d="M327.013 71.2694L328.759 72.1656C328.177 71.8671 327.592 71.5761 327.013 71.2694Z" fill="#F89890"/>
        <path d="M326.46 33.8342L316.393 65.8199L287.808 79.0124L277.922 46.0759L300.445 20.483L326.46 33.8342Z" fill="#FFC5BF"/>
        <path d="M268.64 41.3124C268.64 41.3124 245.785 87.5664 245.494 88.2531C242.856 94.4776 241.469 101.001 241.228 107.463L241.348 107.181L326.999 71.3001C327.013 71.2694 268.64 41.3124 268.64 41.3124Z" fill="#F89890"/>
        <path d="M346.47 81.2551L328.759 72.1656C328.178 71.8671 327.592 71.5754 327 71.2993L267.691 155.371C290.663 167.161 317.963 156.224 328.676 130.942C328.966 130.255 346.47 81.2551 346.47 81.2551Z" fill="#EA3F31"/>
        <path d="M327 71.3001C294.427 55.8192 256.443 71.5537 241.348 107.181L241.229 107.463C240.478 127.241 250.382 146.489 267.69 155.371C279.176 161.265 297.168 145.552 307.879 120.269C308.168 119.591 326.459 72.6944 327 71.3001Z" fill="#F16C60"/>
        <path d="M47.5557 20.483L33.4916 27.7009L48.3482 94.3781L70.0778 46.0752L47.5557 20.483Z" fill="#F89890"/>
        <path d="M59.9029 51.2973L61.6497 50.4012C61.0665 50.6996 60.4874 51.0063 59.9029 51.2973Z" fill="#F89890"/>
        <path d="M33.4916 27.7009L49.2828 56.7468L40.0914 89.328L10.8118 76.4908L7.47656 41.0521L33.4916 27.7009Z" fill="#FFC5BF"/>
        <path d="M1.52997 81.2543C1.52997 81.2543 19.0333 130.254 19.3249 130.942C21.9621 137.166 25.6106 142.531 29.9538 146.886L29.8342 146.604L59.9158 51.328C59.9029 51.2973 1.52997 81.2543 1.52997 81.2543Z" fill="#F89890"/>
        <path d="M79.3603 41.3116L61.6497 50.4012C61.0679 50.6996 60.4881 51.0063 59.9158 51.328L80.3092 155.371C103.281 143.582 113.218 113.536 102.506 88.2531C102.215 87.5664 79.3603 41.3116 79.3603 41.3116Z" fill="#EA3F31"/>
        <path d="M59.9158 51.328C28.2029 68.8383 14.739 110.976 29.8342 146.603L29.9538 146.885C43.2376 160.232 63.0009 164.253 80.3091 155.37C91.7952 149.475 92.4225 124.206 81.7113 98.924C81.4231 98.2455 60.5391 52.6797 59.9158 51.328Z" fill="#F16C60"/>
        <path d="M200.769 332.495C200.762 332.495 158.704 315.659 158.704 315.659L174 383H208.417L200.769 332.495Z" fill="#A7B65F"/>
        <path d="M174 307.242V383H139.583L147.231 332.495L174 307.242Z" fill="#C4CE94"/>
        <path d="M248.571 197.814L194.467 332.495H200.761C201.664 331.763 258.743 285.365 271.516 197.814H248.571Z" fill="#A7B65F"/>
        <path d="M196.945 197.814L174 332.495H194.467C194.467 332.495 238.728 286.055 248.571 197.814H196.945Z" fill="#C4CE94"/>
        <path d="M76.4757 197.814H196.945C196.945 284.093 174 332.495 174 332.495H147.231C147.231 332.495 89.3483 286.055 76.4757 197.814Z" fill="#E2E7CA"/>
        <path d="M206.505 338.808H141.495C138.327 338.808 135.758 335.981 135.758 332.494C135.758 329.007 138.327 326.181 141.495 326.181H206.505C209.674 326.181 212.242 329.007 212.242 332.494C212.242 335.981 209.674 338.808 206.505 338.808Z" fill="#9E52B6"/>
    </g>
    <defs>
        <clipPath id="clip0_15_39">
            <rect width="348" height="383" fill="white"/>
        </clipPath>
    </defs>
</svg>
