<svg width="152" height="77" viewBox="0 0 152 77" fill="none" xmlns="http://www.w3.org/2000/svg">
    <g filter="url(#filter0_d_15_92)">
        <path d="M108.276 0C71.5983 0.692505 71.5731 25.592 71.5731 25.592C71.5731 25.592 70.525 7.55267 34.8673 6.85558C21.9612 6.85558 0 13.8441 0 30.1641C0 45.2787 58.0566 71.7204 69.5857 76.8236C96.0278 63.7418 137.266 50.3963 143.148 30.1641C148.071 13.2295 131.037 0 108.276 0Z" fill="#DD425C"/>
    </g>
    <path d="M40.5787 47.0829L38.3827 47.0683C38.1547 47.0667 37.9631 47.0054 37.8079 46.8844C37.6587 46.7634 37.5189 46.5855 37.3885 46.3506L34.6458 41.9581C34.5747 41.8317 34.4973 41.7291 34.4139 41.6506C34.3364 41.5661 34.2499 41.4995 34.1542 41.4508C34.0646 41.3962 33.9598 41.3595 33.8399 41.3407C33.726 41.322 33.5941 41.3121 33.4441 41.3111L31.9951 41.3014L31.9569 47.0253L29.5359 47.0091L29.6229 33.9954L32.0439 34.0116L32.0074 39.4654L33.2314 39.4736C33.4774 39.4753 33.6907 39.4347 33.8712 39.3519C34.0518 39.2691 34.2208 39.1142 34.3783 38.8873L37.2594 34.6945C37.3807 34.5033 37.5228 34.3482 37.6856 34.2293C37.8484 34.1104 38.0438 34.0517 38.2718 34.0532L40.3417 34.0671L36.7699 39.2633C36.6184 39.4903 36.4431 39.6781 36.2441 39.8268C36.0451 39.9755 35.8253 40.091 35.5848 40.1734C35.9441 40.2778 36.246 40.4418 36.4905 40.6655C36.741 40.8831 36.979 41.1847 37.2045 41.5703L40.5787 47.0829ZM54.1405 47.1736L51.9176 47.1588L51.9683 39.5719L48.3684 39.5479L48.3176 47.1347L46.0947 47.1198L46.1565 37.886L54.2023 37.9398L54.1405 47.1736ZM60.4911 37.8379C61.1751 37.8425 61.7954 37.9576 62.3519 38.1834C62.9144 38.4091 63.3923 38.7273 63.7855 39.138C64.1848 39.5486 64.4904 40.0487 64.7025 40.6381C64.9146 41.2276 65.0182 41.8853 65.0133 42.6113C65.0084 43.3432 64.896 44.0025 64.6761 44.589C64.4562 45.1756 64.1438 45.6745 63.7391 46.0858C63.3403 46.4972 62.8582 46.8119 62.2927 47.0302C61.7332 47.2484 61.1115 47.3553 60.4275 47.3507C59.7375 47.3461 59.1113 47.2309 58.5488 47.0051C57.9863 46.7794 57.5054 46.4581 57.1062 46.0415C56.713 45.6248 56.4073 45.1218 56.1893 44.5323C55.9772 43.9429 55.8736 43.2821 55.8785 42.5502C55.8834 41.8242 55.9958 41.1679 56.2157 40.5814C56.4416 39.9949 56.7539 39.4989 57.1527 39.0936C57.5574 38.6883 58.0425 38.3765 58.608 38.1583C59.1734 37.9401 59.8012 37.8333 60.4911 37.8379ZM60.439 45.6407C61.2069 45.6459 61.7757 45.3917 62.1451 44.8781C62.5205 44.3646 62.7116 43.6099 62.7183 42.6139C62.7249 41.6179 62.544 40.8577 62.1755 40.3332C61.813 39.8088 61.2477 39.544 60.4798 39.5389C59.6998 39.5337 59.119 39.7938 58.7375 40.3192C58.362 40.8387 58.171 41.5935 58.1644 42.5834C58.1577 43.5734 58.3387 44.3307 58.7072 44.8551C59.0817 45.3736 59.659 45.6355 60.439 45.6407ZM72.581 45.7129L72.6208 39.7641L70.3528 39.7489C70.2877 40.5225 70.208 41.221 70.1138 41.8443C70.0197 42.4617 69.911 43.013 69.7878 43.4982C69.6645 43.9834 69.5297 44.4055 69.3833 44.7645C69.2429 45.1236 69.0908 45.4316 68.9271 45.6885L72.581 45.7129ZM76.4333 45.6757L76.4061 49.7526C76.4047 49.9566 76.3436 50.1182 76.2228 50.2374C76.108 50.3566 75.9576 50.4156 75.7716 50.4144L74.3857 50.4051L74.4064 47.3092L67.4945 47.263L67.478 49.7289C67.477 49.8849 67.425 50.0286 67.3222 50.1599C67.2253 50.2912 67.0718 50.3562 66.8618 50.3548L65.4579 50.3454L65.4892 45.6655L65.7502 45.6673C65.9602 45.6687 66.1643 45.643 66.3627 45.5903C66.5611 45.5317 66.7509 45.4129 66.9321 45.2341C67.1193 45.0554 67.295 44.7986 67.4593 44.4637C67.6295 44.1228 67.7826 43.6708 67.9183 43.1077C68.0541 42.5386 68.1728 41.8404 68.2743 41.013C68.3819 40.1857 68.4695 39.1933 68.5373 38.0357L74.7921 38.0776L74.7414 45.6644L76.4333 45.6757ZM82.7268 43.4227C82.0846 43.4484 81.5442 43.5018 81.1056 43.5829C80.6671 43.658 80.3155 43.7576 80.0506 43.8819C79.7858 44.0061 79.5958 44.1518 79.4807 44.319C79.3656 44.4863 79.3073 44.6689 79.306 44.8669C79.3034 45.2569 79.4155 45.5366 79.6424 45.7062C79.8753 45.8757 80.1777 45.9617 80.5497 45.9642C81.0057 45.9673 81.3992 45.8889 81.7303 45.7291C82.0674 45.5634 82.3961 45.3136 82.7163 44.9797L82.7268 43.4227ZM77.6597 39.3838C78.7281 38.4189 80.0094 37.9414 81.5033 37.9514C82.0433 37.955 82.5257 38.0483 82.9505 38.2311C83.3753 38.408 83.7337 38.6564 84.0255 38.9763C84.3174 39.2903 84.5369 39.6668 84.684 40.1058C84.8371 40.5448 84.9118 41.0253 84.9083 41.5473L84.8693 47.3792L83.8614 47.3724C83.6514 47.371 83.4896 47.3399 83.376 47.2792C83.2624 47.2124 83.1733 47.0828 83.1086 46.8904L82.915 46.2231C82.6796 46.4315 82.4504 46.616 82.2273 46.7765C82.0043 46.931 81.7724 47.0614 81.5317 47.1678C81.291 47.2742 81.0324 47.3535 80.7561 47.4056C80.4857 47.4638 80.1855 47.4918 79.8555 47.4896C79.4655 47.487 79.1059 47.4336 78.7765 47.3294C78.4473 47.2192 78.1633 47.0583 77.9248 46.8467C77.6862 46.6351 77.5019 46.3729 77.372 46.06C77.2421 45.7471 77.1785 45.3837 77.1813 44.9697C77.1829 44.7357 77.2234 44.505 77.3029 44.2775C77.3825 44.044 77.51 43.8229 77.6854 43.614C77.8668 43.4052 78.0991 43.2088 78.3823 43.0247C78.6656 42.8406 79.0116 42.6809 79.4205 42.5456C79.8355 42.4104 80.3162 42.3026 80.8627 42.2222C81.4093 42.1359 82.0337 42.0861 82.7358 42.0728L82.7394 41.5328C82.7435 40.9148 82.6146 40.4579 82.3526 40.1622C82.0906 39.8604 81.7106 39.7079 81.2126 39.7045C80.8526 39.7021 80.5523 39.7421 80.3118 39.8245C80.0772 39.9069 79.8696 40.0016 79.6889 40.1083C79.5082 40.2091 79.3426 40.301 79.192 40.384C79.0474 40.4671 78.8852 40.508 78.7052 40.5068C78.5492 40.5057 78.4174 40.4659 78.31 40.3871C78.2025 40.3024 78.1162 40.2058 78.0509 40.0974L77.6597 39.3838ZM89.2019 45.0141C89.4518 45.3218 89.7234 45.5396 90.0165 45.6675C90.3157 45.7955 90.6393 45.8607 90.9872 45.863C91.3232 45.8653 91.6267 45.8043 91.8975 45.6801C92.1683 45.5559 92.3976 45.3655 92.5853 45.1087C92.779 44.852 92.9282 44.529 93.0328 44.1397C93.1375 43.7444 93.1916 43.2797 93.1951 42.7457C93.1988 42.2057 93.1568 41.7495 93.0693 41.3769C92.9878 40.9983 92.8669 40.6915 92.7064 40.4564C92.546 40.2213 92.3492 40.049 92.1159 39.9395C91.8886 39.8299 91.628 39.7742 91.334 39.7722C90.872 39.7691 90.4783 39.8655 90.153 40.0613C89.8278 40.2512 89.5199 40.5221 89.2296 40.8742L89.2019 45.0141ZM89.1222 39.4334C89.503 39.01 89.9343 38.6678 90.4161 38.4071C90.8979 38.1463 91.4627 38.018 92.1107 38.0224C92.6147 38.0257 93.073 38.1338 93.4856 38.3466C93.9042 38.5594 94.2621 38.8678 94.5594 39.2718C94.8628 39.6698 95.0935 40.1634 95.2515 40.7524C95.4156 41.3356 95.4951 42.0051 95.4901 42.7611C95.4855 43.4511 95.3882 44.0894 95.1983 44.6762C95.0083 45.2629 94.7379 45.7711 94.3871 46.2008C94.0422 46.6305 93.6229 46.9667 93.1293 47.2094C92.6417 47.4461 92.0949 47.5625 91.4889 47.5584C90.9729 47.555 90.5325 47.474 90.1675 47.3156C89.8026 47.1511 89.4771 46.927 89.191 46.643L89.1657 50.423L86.9428 50.4081L87.0247 38.1594L88.3836 38.1685C88.6716 38.1704 88.8597 38.3066 88.9479 38.5772L89.1222 39.4334ZM102.75 38.8496C102.859 38.6763 103.007 38.5363 103.194 38.4295C103.381 38.3228 103.579 38.2701 103.789 38.2715L105.535 38.2832L103.361 41.6977C103.21 41.9367 103.055 42.1307 102.898 42.2796C102.741 42.4226 102.552 42.5353 102.329 42.6178C102.628 42.7098 102.874 42.8465 103.064 43.0277C103.255 43.203 103.428 43.4262 103.582 43.6972L105.716 47.5186L104.177 47.5083C103.787 47.5057 103.485 47.4377 103.27 47.3042C103.055 47.1708 102.873 46.9806 102.725 46.7336L101.383 44.1685C101.264 43.9457 101.109 43.7797 100.918 43.6704C100.733 43.5612 100.514 43.5057 100.262 43.504L99.4251 43.4984L99.3985 47.4763L97.1756 47.4615L97.2373 38.2277L99.4603 38.2425L99.4348 42.0494L100.155 42.0543C100.407 42.0559 100.608 42.0123 100.759 41.9233C100.915 41.8283 101.048 41.6852 101.158 41.494L102.75 38.8496ZM115.398 38.3491L110.289 50.0872C110.222 50.2428 110.134 50.3592 110.025 50.4365C109.923 50.5198 109.764 50.5607 109.548 50.5593L107.892 50.5482L109.644 46.8518L105.967 38.286L107.92 38.2991C108.094 38.3003 108.228 38.3432 108.324 38.4278C108.425 38.5125 108.499 38.609 108.547 38.7173L110.477 43.5183C110.542 43.6808 110.595 43.8431 110.635 44.0054C110.682 44.1677 110.726 44.333 110.767 44.5013C110.822 44.3337 110.877 44.169 110.932 44.0074C110.988 43.8398 111.049 43.6752 111.116 43.5136L113.002 38.7471C113.05 38.6274 113.129 38.529 113.238 38.4517C113.352 38.3744 113.478 38.3363 113.616 38.3372L115.398 38.3491Z" fill="white"/>
    <defs>
        <filter id="filter0_d_15_92" x="0" y="0" width="152" height="84.8236" filterUnits="userSpaceOnUse" color-interpolation-filters="sRGB">
            <feFlood flood-opacity="0" result="BackgroundImageFix"/>
            <feColorMatrix in="SourceAlpha" type="matrix" values="0 0 0 0 0 0 0 0 0 0 0 0 0 0 0 0 0 0 127 0" result="hardAlpha"/>
            <feOffset dx="4" dy="4"/>
            <feGaussianBlur stdDeviation="2"/>
            <feComposite in2="hardAlpha" operator="out"/>
            <feColorMatrix type="matrix" values="0 0 0 0 0.133333 0 0 0 0 0.207843 0 0 0 0 0.4 0 0 0 0.25 0"/>
            <feBlend mode="normal" in2="BackgroundImageFix" result="effect1_dropShadow_15_92"/>
            <feBlend mode="normal" in="SourceGraphic" in2="effect1_dropShadow_15_92" result="shape"/>
        </filter>
    </defs>
</svg>
