<svg width="107" height="77" viewBox="0 0 107 77" fill="none" xmlns="http://www.w3.org/2000/svg">
    <g filter="url(#filter0_d_15_89)">
        <path d="M74.4395 0C49.2238 0.692505 49.2065 25.592 49.2065 25.592C49.2065 25.592 48.4859 7.55267 23.9713 6.85558C15.0983 6.85558 0 13.8441 0 30.1641C0 45.2787 39.9139 71.7204 47.8402 76.8236C66.0191 63.7418 94.3703 50.3963 98.4139 30.1641C101.799 13.2295 90.0879 0 74.4395 0Z" fill="#DD425C"/>
    </g>
    <path d="M37.8047 43.8157C38.2714 43.7731 38.673 43.6792 39.0095 43.534C39.3455 43.3824 39.6172 43.1891 39.8246 42.9539C40.0378 42.7118 40.1871 42.4311 40.2724 42.1117C40.3571 41.7859 40.3819 41.4307 40.3467 41.046C40.3133 40.6802 40.2263 40.3542 40.0857 40.0682C39.9451 39.7821 39.7517 39.5454 39.5056 39.358C39.2596 39.1706 38.9582 39.0391 38.6015 38.9636C38.2443 38.8818 37.8291 38.8625 37.3561 38.9057L35.4545 39.0794L35.9031 43.9895L37.8047 43.8157ZM37.1763 36.9379C38.0908 36.8543 38.8922 36.8892 39.5803 37.0426C40.2684 37.196 40.8477 37.4451 41.318 37.7901C41.7884 38.1351 42.1521 38.5661 42.4092 39.0832C42.6726 39.5997 42.8334 40.1765 42.8916 40.8135C42.9521 41.4757 42.8973 42.0944 42.7273 42.6696C42.5567 43.2385 42.2688 43.7418 41.8636 44.1795C41.4584 44.6171 40.9316 44.9769 40.2832 45.2587C39.6411 45.54 38.8755 45.7212 37.9862 45.8025L36.0846 45.9762L36.5245 50.7916L33.9796 51.0241L32.7298 37.3441L37.1763 36.9379ZM46.3694 35.7164L47.6537 49.7749L45.317 49.9884L44.0326 35.9299L46.3694 35.7164ZM54.731 44.95C54.059 45.0432 53.4969 45.155 53.0445 45.2853C52.5916 45.4094 52.2324 45.5503 51.967 45.7081C51.7016 45.8659 51.517 46.0386 51.4133 46.2261C51.3096 46.4137 51.2673 46.6115 51.2863 46.8196C51.3238 47.2296 51.4704 47.5119 51.7262 47.6666C51.9883 47.8208 52.3149 47.88 52.7059 47.8442C53.1853 47.8004 53.5906 47.6776 53.9219 47.4756C54.259 47.2667 54.5785 46.9704 54.8805 46.5867L54.731 44.95ZM48.9917 41.2292C50.0147 40.1055 51.3114 39.4719 52.8819 39.3284C53.4495 39.2765 53.9659 39.3248 54.431 39.4731C54.8955 39.6151 55.2975 39.8391 55.6371 40.1451C55.9761 40.4449 56.2455 40.8177 56.4452 41.2637C56.6513 41.7092 56.7794 42.2062 56.8295 42.755L57.3896 48.8854L56.33 48.9822C56.1092 49.0024 55.9361 48.9864 55.8105 48.9343C55.6843 48.8759 55.5773 48.7489 55.4895 48.5534L55.2174 47.8724C54.9916 48.1156 54.7698 48.333 54.552 48.5246C54.3336 48.7099 54.1035 48.8708 53.8615 49.0074C53.6196 49.144 53.3562 49.2539 53.0713 49.3372C52.7932 49.4262 52.4807 49.4865 52.1338 49.5182C51.7239 49.5557 51.3406 49.5366 50.9839 49.4611C50.6266 49.3793 50.3118 49.2395 50.0393 49.0418C49.7669 48.8441 49.5463 48.5876 49.3776 48.2723C49.2088 47.957 49.1046 47.5818 49.0649 47.1466C49.0424 46.9006 49.0612 46.6541 49.1213 46.4069C49.1808 46.1534 49.2919 45.908 49.4547 45.6705C49.6237 45.4325 49.8475 45.2022 50.1261 44.9796C50.4047 44.757 50.7518 44.5535 51.1674 44.3693C51.5893 44.1845 52.0832 44.0217 52.6491 43.881C53.2144 43.7339 53.8652 43.6172 54.6014 43.5309L54.5495 42.9633C54.4901 42.3136 54.3076 41.847 54.0019 41.5633C53.6955 41.2733 53.2806 41.1522 52.7571 41.2C52.3787 41.2346 52.0674 41.3075 51.8232 41.4189C51.5853 41.5297 51.3769 41.6505 51.1981 41.7813C51.0186 41.9058 50.8541 42.0194 50.7045 42.1221C50.5612 42.2242 50.395 42.2839 50.2057 42.3012C50.0418 42.3162 49.8993 42.2879 49.7782 42.2163C49.6567 42.1383 49.556 42.0458 49.4762 41.9386L48.9917 41.2292ZM67.2437 38.1976L63.0857 51.0552C63.0313 51.2255 62.9511 51.3569 62.8451 51.4492C62.7459 51.5473 62.5828 51.6067 62.3558 51.6275L60.615 51.7865L62.0753 47.7228L57.329 39.1034L59.3819 38.9158C59.5648 38.8991 59.7108 38.9303 59.8197 39.0094C59.935 39.0879 60.0231 39.1816 60.0839 39.2905L62.6061 44.1351C62.6911 44.2991 62.7634 44.4642 62.8231 44.6304C62.8891 44.7961 62.9523 44.9652 63.0126 45.1378C63.0532 44.956 63.0941 44.7774 63.1353 44.6019C63.1759 44.4201 63.2232 44.2409 63.277 44.0643L64.7669 38.8627C64.8059 38.7319 64.8783 38.6204 64.9844 38.528C65.0967 38.4351 65.2254 38.382 65.3705 38.3687L67.2437 38.1976Z" fill="white"/>
    <defs>
        <filter id="filter0_d_15_89" x="0" y="0" width="107" height="84.8236" filterUnits="userSpaceOnUse" color-interpolation-filters="sRGB">
            <feFlood flood-opacity="0" result="BackgroundImageFix"/>
            <feColorMatrix in="SourceAlpha" type="matrix" values="0 0 0 0 0 0 0 0 0 0 0 0 0 0 0 0 0 0 127 0" result="hardAlpha"/>
            <feOffset dx="4" dy="4"/>
            <feGaussianBlur stdDeviation="2"/>
            <feComposite in2="hardAlpha" operator="out"/>
            <feColorMatrix type="matrix" values="0 0 0 0 0.133333 0 0 0 0 0.207843 0 0 0 0 0.4 0 0 0 0.25 0"/>
            <feBlend mode="normal" in2="BackgroundImageFix" result="effect1_dropShadow_15_89"/>
            <feBlend mode="normal" in="SourceGraphic" in2="effect1_dropShadow_15_89" result="shape"/>
        </filter>
    </defs>
</svg>
